<?xml version="1.0" encoding="UTF-8"?><!DOCTYPE svg PUBLIC "-//W3C//DTD SVG 1.1//EN" "http://www.w3.org/Graphics/SVG/1.1/DTD/svg11.dtd"><svg xmlns="http://www.w3.org/2000/svg" xmlns:xlink="http://www.w3.org/1999/xlink"><symbol id="appstore" viewBox="0 0 176 52">
<path d="M169 0H6.5C2.91015 0 0 2.91015 0 6.5V45.5C0 49.0898 2.91015 52 6.5 52H169C172.59 52 175.5 49.0898 175.5 45.5V6.5C175.5 2.91015 172.59 0 169 0Z" fill="currentColor"/>
<path d="M169 1.04C170.448 1.04 171.837 1.61525 172.861 2.6392C173.885 3.66315 174.46 5.05192 174.46 6.5V45.5C174.46 46.9481 173.885 48.3369 172.861 49.3608C171.837 50.3848 170.448 50.96 169 50.96H6.5C5.05192 50.96 3.66315 50.3848 2.6392 49.3608C1.61525 48.3369 1.04 46.9481 1.04 45.5V6.5C1.04 5.05192 1.61525 3.66315 2.6392 2.6392C3.66315 1.61525 5.05192 1.04 6.5 1.04H169ZM169 0H6.5C4.77609 0 3.12279 0.684819 1.90381 1.90381C0.684819 3.12279 0 4.77609 0 6.5V45.5C0 47.2239 0.684819 48.8772 1.90381 50.0962C3.12279 51.3152 4.77609 52 6.5 52H169C170.724 52 172.377 51.3152 173.596 50.0962C174.815 48.8772 175.5 47.2239 175.5 45.5V6.5C175.5 4.77609 174.815 3.12279 173.596 1.90381C172.377 0.684819 170.724 0 169 0Z" fill="#A6A6A6"/>
<path d="M41.7468 25.1068C41.7108 21.1146 45.0156 19.1724 45.1667 19.082C43.2951 16.3533 40.3942 15.9804 39.3748 15.9507C36.9383 15.6943 34.575 17.4086 33.3339 17.4086C32.068 17.4086 30.1567 15.9755 28.0969 16.0176C25.4462 16.0585 22.9664 17.5931 21.6063 19.9763C18.7996 24.8355 20.8929 31.9763 23.582 35.9041C24.9272 37.8277 26.499 39.9755 28.5564 39.9C30.5692 39.817 31.3211 38.6167 33.7501 38.6167C36.1567 38.6167 36.8628 39.9 38.961 39.8517C41.1212 39.817 42.4813 37.9194 43.7794 35.9784C45.3339 33.7736 45.9582 31.6023 45.9829 31.4908C45.9322 31.4734 41.7876 29.8917 41.7468 25.1068Z" fill="white"/>
<path d="M37.7831 13.3666C38.8657 12.0127 39.6064 10.1709 39.4008 8.30176C37.8339 8.37112 35.8744 9.38558 34.7459 10.7097C33.7476 11.8765 32.8558 13.789 33.0862 15.5875C34.8463 15.7188 36.6535 14.6994 37.7831 13.3666Z" fill="white"/>
<path d="M70.8757 39.6239H68.0628L66.5219 34.7821H61.166L59.6982 39.6239H56.9595L62.2659 23.14H65.5434L70.8757 39.6239ZM66.0574 32.7507L64.6639 28.4464C64.5165 28.0067 64.2403 26.9712 63.8328 25.3411H63.7832C63.621 26.0422 63.3596 27.0777 63.0004 28.4464L61.6317 32.7507H66.0574Z" fill="white"/>
<path d="M84.5216 33.5339C84.5216 35.5554 83.9754 37.1533 82.8829 38.3263C81.9043 39.3704 80.6892 39.8919 79.2388 39.8919C77.6731 39.8919 76.5484 39.3296 75.8635 38.2049H75.8139V44.4662H73.1731V31.6499C73.1731 30.3791 73.1397 29.0748 73.0753 27.7371H75.3977L75.5451 29.621H75.5947C76.4753 28.2015 77.8119 27.493 79.6054 27.493C81.0076 27.493 82.1781 28.0467 83.1145 29.1553C84.0534 30.2651 84.5216 31.7243 84.5216 33.5339ZM81.8313 33.6305C81.8313 32.4736 81.5712 31.5199 81.0484 30.7693C80.4774 29.9864 79.7107 29.595 78.7495 29.595C78.098 29.595 77.5059 29.813 76.977 30.2428C76.4469 30.6764 76.1 31.2424 75.9378 31.9435C75.856 32.2705 75.8151 32.5381 75.8151 32.7486V34.7305C75.8151 35.595 76.0802 36.3246 76.6104 36.9204C77.1405 37.5162 77.8292 37.8135 78.6764 37.8135C79.6711 37.8135 80.4452 37.4295 80.9989 36.664C81.5538 35.8973 81.8313 34.8865 81.8313 33.6305Z" fill="white"/>
<path d="M98.1928 33.5339C98.1928 35.5554 97.6466 37.1533 96.5529 38.3263C95.5756 39.3704 94.3605 39.8919 92.91 39.8919C91.3444 39.8919 90.2197 39.3296 89.5359 38.2049H89.4864V44.4662H86.8456V31.6499C86.8456 30.3791 86.8122 29.0748 86.7477 27.7371H89.0702L89.2176 29.621H89.2671C90.1466 28.2015 91.4831 27.493 93.2779 27.493C94.6788 27.493 95.8493 28.0467 96.7882 29.1553C97.7234 30.2651 98.1928 31.7243 98.1928 33.5339ZM95.5025 33.6305C95.5025 32.4736 95.2411 31.5199 94.7184 30.7693C94.1474 29.9864 93.3832 29.595 92.4208 29.595C91.768 29.595 91.1772 29.813 90.647 30.2428C90.1169 30.6764 89.7713 31.2424 89.609 31.9435C89.5285 32.2705 89.4864 32.5381 89.4864 32.7486V34.7305C89.4864 35.595 89.7515 36.3246 90.2791 36.9204C90.8093 37.5149 91.498 37.8135 92.3477 37.8135C93.3423 37.8135 94.1165 37.4295 94.6701 36.664C95.2251 35.8973 95.5025 34.8865 95.5025 33.6305Z" fill="white"/>
<path d="M113.478 35.0005C113.478 36.4027 112.991 37.5435 112.014 38.4242C110.94 39.3866 109.445 39.8672 107.524 39.8672C105.75 39.8672 104.328 39.5253 103.252 38.8403L103.863 36.6393C105.023 37.3403 106.295 37.6921 107.681 37.6921C108.676 37.6921 109.45 37.4667 110.006 37.0183C110.56 36.5699 110.836 35.9679 110.836 35.2173C110.836 34.5484 110.608 33.9848 110.151 33.5278C109.696 33.0707 108.937 32.6459 107.877 32.2532C104.991 31.1768 103.549 29.6 103.549 27.5265C103.549 26.1715 104.054 25.0604 105.066 24.1958C106.074 23.33 107.42 22.8977 109.102 22.8977C110.602 22.8977 111.848 23.1591 112.842 23.6805L112.182 25.8333C111.253 25.3279 110.203 25.0753 109.027 25.0753C108.098 25.0753 107.373 25.3044 106.852 25.7602C106.413 26.1677 106.192 26.6644 106.192 27.2528C106.192 27.9043 106.444 28.4431 106.949 28.8668C107.389 29.2582 108.188 29.6818 109.347 30.1388C110.765 30.7099 111.807 31.3775 112.477 32.143C113.145 32.906 113.478 33.861 113.478 35.0005Z" fill="white"/>
<path d="M122.209 29.7188H119.298V35.4897C119.298 36.9575 119.811 37.6908 120.839 37.6908C121.311 37.6908 121.702 37.6499 122.012 37.5681L122.085 39.5735C121.565 39.768 120.88 39.8658 120.031 39.8658C118.988 39.8658 118.173 39.5475 117.585 38.9121C116.999 38.2754 116.704 37.2077 116.704 35.7077V29.7164H114.97V27.7345H116.704V25.5582L119.298 24.7754V27.7345H122.209V29.7188Z" fill="white"/>
<path d="M135.342 33.5826C135.342 35.4096 134.82 36.9096 133.777 38.0826C132.683 39.2903 131.231 39.8923 129.422 39.8923C127.678 39.8923 126.289 39.3138 125.254 38.1569C124.218 37 123.7 35.5396 123.7 33.7795C123.7 31.9377 124.233 30.429 125.302 29.256C126.368 28.0817 127.808 27.4946 129.617 27.4946C131.361 27.4946 132.765 28.0731 133.824 29.2312C134.837 30.3547 135.342 31.8051 135.342 33.5826ZM132.602 33.6681C132.602 32.5718 132.368 31.6317 131.894 30.8477C131.34 29.8988 130.549 29.4257 129.523 29.4257C128.462 29.4257 127.655 29.9001 127.102 30.8477C126.627 31.633 126.393 32.588 126.393 33.7176C126.393 34.8138 126.627 35.7539 127.102 36.5368C127.673 37.4856 128.47 37.9587 129.5 37.9587C130.508 37.9587 131.299 37.4757 131.87 36.512C132.357 35.7131 132.602 34.763 132.602 33.6681Z" fill="white"/>
<path d="M143.926 30.0595C143.665 30.0112 143.386 29.9864 143.094 29.9864C142.165 29.9864 141.446 30.337 140.941 31.0393C140.501 31.6586 140.281 32.4414 140.281 33.3865V39.6231H137.641L137.666 31.4803C137.666 30.1103 137.632 28.863 137.567 27.7383H139.867L139.964 30.0125H140.037C140.315 29.2309 140.755 28.6016 141.357 28.1297C141.945 27.7049 142.581 27.493 143.266 27.493C143.51 27.493 143.73 27.5104 143.926 27.5413V30.0595Z" fill="white"/>
<path d="M155.737 33.1178C155.737 33.591 155.706 33.9898 155.64 34.3156H147.718C147.749 35.4898 148.131 36.3879 148.867 37.0072C149.535 37.5609 150.398 37.8383 151.458 37.8383C152.631 37.8383 153.701 37.6513 154.664 37.276L155.078 39.1092C153.953 39.5997 152.625 39.8437 151.093 39.8437C149.25 39.8437 147.803 39.3012 146.75 38.2173C145.7 37.1335 145.173 35.6781 145.173 33.8523C145.173 32.06 145.663 30.5674 146.642 29.3771C147.668 28.1063 149.054 27.4708 150.798 27.4708C152.511 27.4708 153.808 28.1063 154.689 29.3771C155.386 30.3866 155.737 31.6352 155.737 33.1178ZM153.218 32.4329C153.236 31.65 153.064 30.9737 152.706 30.4027C152.249 29.6682 151.546 29.3015 150.601 29.3015C149.738 29.3015 149.035 29.6595 148.499 30.3779C148.059 30.949 147.798 31.6339 147.718 32.4316H153.218V32.4329Z" fill="white"/>
<path d="M65.1845 12.9988C65.1845 14.4567 64.7473 15.5541 63.8741 16.2911C63.0652 16.9711 61.9157 17.3118 60.4269 17.3118C59.6887 17.3118 59.0569 17.2795 58.528 17.2151V9.24939C59.218 9.13791 59.9612 9.08093 60.7638 9.08093C62.1821 9.08093 63.251 9.38936 63.9719 10.0062C64.7795 10.7036 65.1845 11.7007 65.1845 12.9988ZM63.8158 13.0347C63.8158 12.0896 63.5656 11.365 63.0652 10.8596C62.5648 10.3555 61.834 10.1028 60.8716 10.1028C60.4628 10.1028 60.1148 10.1301 59.8261 10.187V16.2428C59.9859 16.2676 60.2783 16.2787 60.7031 16.2787C61.6965 16.2787 62.4632 16.0025 63.0033 15.4501C63.5433 14.8976 63.8158 14.0925 63.8158 13.0347Z" fill="white"/>
<path d="M72.4419 14.2721C72.4419 15.1701 72.1855 15.9059 71.6727 16.4831C71.1351 17.0764 70.4229 17.3724 69.5335 17.3724C68.6764 17.3724 67.9939 17.0888 67.4848 16.519C66.9769 15.9504 66.723 15.2333 66.723 14.3687C66.723 13.4645 66.9844 12.7225 67.5096 12.1466C68.0348 11.5706 68.7408 11.282 69.6301 11.282C70.4873 11.282 71.176 11.5656 71.6974 12.1342C72.1929 12.6866 72.4419 13.4001 72.4419 14.2721ZM71.0955 14.3142C71.0955 13.7754 70.979 13.3134 70.7474 12.9281C70.4749 12.4624 70.0872 12.2295 69.5831 12.2295C69.0616 12.2295 68.6652 12.4624 68.3927 12.9281C68.1599 13.3134 68.0447 13.7828 68.0447 14.3377C68.0447 14.8765 68.1611 15.3386 68.3927 15.7238C68.6739 16.1895 69.0653 16.4224 69.5707 16.4224C70.0661 16.4224 70.4551 16.1858 70.735 15.7114C70.9753 15.3187 71.0955 14.853 71.0955 14.3142Z" fill="white"/>
<path d="M82.1727 11.4006L80.3457 17.2396H79.1566L78.3998 14.7041C78.2078 14.0712 78.0517 13.4419 77.9304 12.8176H77.9068C77.7941 13.4593 77.638 14.0873 77.4374 14.7041L76.6335 17.2396H75.4308L73.7128 11.4006H75.0468L75.707 14.1764C75.8668 14.8329 75.9981 15.4584 76.1034 16.0505H76.1269C76.2235 15.5625 76.3833 14.9407 76.6087 14.1888L77.4374 11.4019H78.4952L79.2892 14.1294C79.4811 14.7945 79.6372 15.4349 79.7574 16.0518H79.7933C79.8812 15.451 80.0138 14.8106 80.1897 14.1294L80.8982 11.4019H82.1727V11.4006Z" fill="white"/>
<path d="M88.9022 17.2397H87.6041V13.8953C87.6041 12.8648 87.2127 12.3495 86.4274 12.3495C86.0421 12.3495 85.7312 12.4907 85.4897 12.7744C85.2506 13.058 85.1293 13.3924 85.1293 13.7752V17.2385H83.8311V13.0692C83.8311 12.5564 83.8151 12.0002 83.7841 11.3982H84.9249L84.9856 12.3111H85.0215C85.1726 12.0275 85.398 11.7934 85.6941 11.6063C86.0459 11.3883 86.4397 11.2781 86.8708 11.2781C87.4158 11.2781 87.8691 11.454 88.2296 11.807C88.678 12.2393 88.9022 12.8846 88.9022 13.7417V17.2397Z" fill="white"/>
<path d="M92.4818 17.2397H91.1849V8.72156H92.4818V17.2397Z" fill="white"/>
<path d="M100.124 14.2721C100.124 15.1701 99.868 15.9059 99.3552 16.4831C98.8177 17.0764 98.1042 17.3724 97.2161 17.3724C96.3577 17.3724 95.6752 17.0888 95.1674 16.519C94.6595 15.9504 94.4056 15.2333 94.4056 14.3687C94.4056 13.4645 94.667 12.7225 95.1922 12.1466C95.7173 11.5706 96.4234 11.282 97.3115 11.282C98.1699 11.282 98.8573 11.5656 99.38 12.1342C99.8755 12.6866 100.124 13.4001 100.124 14.2721ZM98.7768 14.3142C98.7768 13.7754 98.6604 13.3134 98.4287 12.9281C98.1575 12.4624 97.7685 12.2295 97.2656 12.2295C96.7429 12.2295 96.3466 12.4624 96.0753 12.9281C95.8424 13.3134 95.7272 13.7828 95.7272 14.3377C95.7272 14.8765 95.8437 15.3386 96.0753 15.7238C96.3565 16.1895 96.7479 16.4224 97.2533 16.4224C97.7487 16.4224 98.1364 16.1858 98.4163 15.7114C98.6579 15.3187 98.7768 14.853 98.7768 14.3142Z" fill="white"/>
<path d="M106.407 17.2399H105.241L105.145 16.5673H105.109C104.71 17.1036 104.141 17.3724 103.403 17.3724C102.852 17.3724 102.406 17.1953 102.07 16.8435C101.765 16.5239 101.613 16.1263 101.613 15.6544C101.613 14.9409 101.91 14.3972 102.509 14.0206C103.106 13.6441 103.946 13.4595 105.027 13.4682V13.3592C105.027 12.59 104.623 12.206 103.814 12.206C103.238 12.206 102.73 12.3509 102.292 12.6383L102.028 11.7861C102.571 11.4504 103.241 11.282 104.031 11.282C105.557 11.282 106.322 12.0871 106.322 13.6973V15.8476C106.322 16.431 106.351 16.8955 106.407 17.2399ZM105.059 15.2333V14.3328C103.627 14.308 102.911 14.7007 102.911 15.5095C102.911 15.8142 102.993 16.0421 103.16 16.1945C103.327 16.3468 103.54 16.4224 103.794 16.4224C104.079 16.4224 104.346 16.332 104.588 16.1523C104.832 15.9715 104.982 15.7424 105.038 15.4612C105.052 15.398 105.059 15.3212 105.059 15.2333Z" fill="white"/>
<path d="M113.783 17.2397H112.631L112.57 16.3021H112.534C112.166 17.0155 111.539 17.3723 110.659 17.3723C109.955 17.3723 109.369 17.0961 108.905 16.5436C108.44 15.9912 108.209 15.274 108.209 14.3933C108.209 13.4482 108.46 12.6828 108.965 12.0981C109.455 11.5531 110.054 11.2806 110.768 11.2806C111.552 11.2806 112.101 11.5444 112.413 12.0733H112.437V8.72156H113.737V15.6667C113.737 16.2352 113.752 16.7591 113.783 17.2397ZM112.437 14.7773V13.8037C112.437 13.6353 112.425 13.499 112.401 13.395C112.328 13.0828 112.171 12.8202 111.932 12.6084C111.691 12.3966 111.399 12.2901 111.064 12.2901C110.579 12.2901 110.2 12.4821 109.922 12.8673C109.646 13.2525 109.506 13.7443 109.506 14.345C109.506 14.9222 109.638 15.3904 109.904 15.7509C110.186 16.1349 110.565 16.3269 111.039 16.3269C111.465 16.3269 111.806 16.1671 112.065 15.8463C112.315 15.5502 112.437 15.1935 112.437 14.7773Z" fill="white"/>
<path d="M124.885 14.2721C124.885 15.1701 124.629 15.9059 124.116 16.4831C123.578 17.0764 122.867 17.3724 121.977 17.3724C121.121 17.3724 120.438 17.0888 119.928 16.519C119.42 15.9504 119.166 15.2333 119.166 14.3687C119.166 13.4645 119.427 12.7225 119.953 12.1466C120.478 11.5706 121.184 11.282 122.074 11.282C122.93 11.282 123.62 11.5656 124.14 12.1342C124.636 12.6866 124.885 13.4001 124.885 14.2721ZM123.54 14.3142C123.54 13.7754 123.423 13.3134 123.192 12.9281C122.918 12.4624 122.531 12.2295 122.026 12.2295C121.506 12.2295 121.11 12.4624 120.836 12.9281C120.603 13.3134 120.488 13.7828 120.488 14.3377C120.488 14.8765 120.604 15.3386 120.836 15.7238C121.117 16.1895 121.508 16.4224 122.014 16.4224C122.509 16.4224 122.899 16.1858 123.179 15.7114C123.418 15.3187 123.54 14.853 123.54 14.3142Z" fill="white"/>
<path d="M131.864 17.2397H130.568V13.8953C130.568 12.8648 130.176 12.3495 129.39 12.3495C129.004 12.3495 128.694 12.4907 128.453 12.7744C128.213 13.058 128.093 13.3924 128.093 13.7752V17.2385H126.793V13.0692C126.793 12.5564 126.779 12.0002 126.748 11.3982H127.887L127.948 12.3111H127.984C128.136 12.0275 128.362 11.7934 128.656 11.6063C129.009 11.3883 129.402 11.2781 129.834 11.2781C130.378 11.2781 130.831 11.454 131.192 11.807C131.641 12.2393 131.864 12.8846 131.864 13.7417V17.2397Z" fill="white"/>
<path d="M140.601 12.3732H139.171V15.2097C139.171 15.9306 139.425 16.291 139.928 16.291C140.161 16.291 140.354 16.2712 140.506 16.2303L140.54 17.215C140.283 17.3117 139.947 17.36 139.532 17.36C139.019 17.36 138.62 17.2039 138.331 16.8918C138.042 16.5796 137.898 16.0544 137.898 15.3174V12.3732H137.044V11.4008H137.898V10.3306L139.17 9.94666V11.3996H140.599V12.3732H140.601Z" fill="white"/>
<path d="M147.473 17.2397H146.174V13.9202C146.174 12.8735 145.782 12.3496 144.998 12.3496C144.396 12.3496 143.985 12.653 143.759 13.26C143.721 13.3875 143.699 13.5436 143.699 13.7269V17.2385H142.402V8.72156H143.699V12.2406H143.724C144.132 11.6002 144.718 11.2806 145.477 11.2806C146.015 11.2806 146.46 11.4565 146.813 11.8095C147.252 12.2492 147.473 12.9032 147.473 13.7678V17.2397Z" fill="white"/>
<path d="M154.562 14.0438C154.562 14.2767 154.544 14.4724 154.514 14.6322H150.62C150.638 15.2094 150.824 15.6491 151.184 15.9538C151.514 16.2263 151.938 16.3626 152.459 16.3626C153.035 16.3626 153.56 16.2709 154.033 16.0864L154.236 16.9881C153.682 17.2284 153.031 17.3486 152.277 17.3486C151.372 17.3486 150.66 17.0822 150.145 16.5496C149.627 16.017 149.371 15.3023 149.371 14.4055C149.371 13.5248 149.61 12.7916 150.092 12.2069C150.594 11.5826 151.274 11.2705 152.133 11.2705C152.973 11.2705 153.611 11.5826 154.042 12.2069C154.39 12.7024 154.562 13.3155 154.562 14.0438ZM153.323 13.7082C153.333 13.3229 153.248 12.991 153.072 12.7111C152.846 12.3506 152.503 12.1698 152.039 12.1698C151.615 12.1698 151.269 12.3457 151.006 12.6987C150.79 12.9798 150.663 13.3155 150.62 13.7082H153.323Z" fill="white"/>
</symbol><symbol id="facebook" viewBox="0 0 12 24">
<path fill-rule="evenodd" clip-rule="evenodd" d="M3 8H0V12H3V24H8V12H11.642L12 8H8V6.333C8 5.378 8.192 5 9.115 5H12V0H8.192C4.596 0 3 1.583 3 4.615V8Z" fill="#1F1F1F"/>
</symbol><symbol id="googleplay" viewBox="0 0 176 52">
<path d="M169 0H6.5C2.91015 0 0 2.91015 0 6.5V45.5C0 49.0898 2.91015 52 6.5 52H169C172.59 52 175.5 49.0898 175.5 45.5V6.5C175.5 2.91015 172.59 0 169 0Z" fill="currentColor"/>
<path d="M169 1.04C170.448 1.04 171.837 1.61525 172.861 2.6392C173.885 3.66315 174.46 5.05192 174.46 6.5V45.5C174.46 46.9481 173.885 48.3369 172.861 49.3608C171.837 50.3848 170.448 50.96 169 50.96H6.5C5.05192 50.96 3.66315 50.3848 2.6392 49.3608C1.61525 48.3369 1.04 46.9481 1.04 45.5V6.5C1.04 5.05192 1.61525 3.66315 2.6392 2.6392C3.66315 1.61525 5.05192 1.04 6.5 1.04H169ZM169 0H6.5C4.77609 0 3.12279 0.684819 1.90381 1.90381C0.684819 3.12279 0 4.77609 0 6.5V45.5C0 47.2239 0.684819 48.8772 1.90381 50.0962C3.12279 51.3152 4.77609 52 6.5 52H169C170.724 52 172.377 51.3152 173.596 50.0962C174.815 48.8772 175.5 47.2239 175.5 45.5V6.5C175.5 4.77609 174.815 3.12279 173.596 1.90381C172.377 0.684819 170.724 0 169 0Z" fill="#A6A6A6"/>
<path d="M88.5821 28.2748C87.4904 28.2799 86.4248 28.6083 85.5197 29.2185C84.6145 29.8287 83.9104 30.6934 83.4962 31.7034C83.082 32.7134 82.9763 33.8235 83.1924 34.8935C83.4085 35.9635 83.9368 36.9455 84.7105 37.7156C85.4842 38.4857 86.4687 39.0093 87.5397 39.2204C88.6107 39.4315 89.7203 39.3206 90.7284 38.9017C91.7364 38.4827 92.5978 37.7746 93.2037 36.8666C93.8097 35.9586 94.1331 34.8914 94.1331 33.7998C94.1437 33.0691 94.0071 32.3437 93.7316 31.6669C93.456 30.9901 93.0471 30.3756 92.5292 29.8601C92.0113 29.3446 91.3949 28.9386 90.7168 28.6662C90.0387 28.3939 89.3127 28.2607 88.5821 28.2748V28.2748ZM88.5821 37.1538C87.9107 37.2007 87.2408 37.0446 86.6593 36.7058C86.0779 36.3669 85.6118 35.861 85.3217 35.2537C85.0316 34.6465 84.9309 33.966 85.0326 33.3008C85.1344 32.6355 85.4339 32.0163 85.8923 31.5235C86.3507 31.0308 86.9467 30.6873 87.6029 30.5378C88.259 30.3882 88.945 30.4396 89.5716 30.6851C90.1982 30.9306 90.7365 31.3589 91.1164 31.9144C91.4964 32.4699 91.7004 33.1268 91.7021 33.7998C91.723 34.2262 91.6583 34.6525 91.5119 35.0535C91.3655 35.4545 91.1402 35.8222 90.8494 36.1348C90.5587 36.4474 90.2082 36.6986 89.8188 36.8736C89.4294 37.0486 89.0089 37.1439 88.5821 37.1538ZM76.4791 28.2748C75.3869 28.2773 74.32 28.6036 73.4131 29.2122C72.5062 29.8209 71.8001 30.6846 71.3839 31.6944C70.9677 32.7042 70.8602 33.8147 71.0748 34.8856C71.2895 35.9565 71.8167 36.9397 72.5899 37.7111C73.3631 38.4825 74.3476 39.0074 75.419 39.2195C76.4903 39.4317 77.6006 39.3215 78.6094 38.9029C79.6182 38.4844 80.4803 37.7762 81.0868 36.8679C81.6933 35.9596 82.0171 34.892 82.0171 33.7998C82.0277 33.0691 81.8911 32.3437 81.6156 31.6669C81.34 30.9901 80.9311 30.3756 80.4132 29.8601C79.8953 29.3446 79.2789 28.9386 78.6008 28.6662C77.9227 28.3939 77.1967 28.2607 76.4661 28.2748H76.4791ZM76.4791 37.1538C75.8074 37.2034 75.1363 37.0496 74.5533 36.7125C73.9702 36.3754 73.5022 35.8705 73.21 35.2637C72.9179 34.6568 72.8152 33.9761 72.9154 33.3101C73.0155 32.6441 73.3139 32.0236 73.7716 31.5296C74.2293 31.0355 74.8251 30.6906 75.4815 30.5399C76.1379 30.3892 76.8245 30.4396 77.4519 30.6846C78.0793 30.9295 78.6184 31.3577 78.999 31.9133C79.3797 32.4689 79.5842 33.1263 79.5861 33.7998C79.607 34.2262 79.5423 34.6525 79.3959 35.0535C79.2495 35.4545 79.0242 35.8222 78.7334 36.1348C78.4427 36.4474 78.0922 36.6986 77.7028 36.8736C77.3134 37.0486 76.8929 37.1439 76.4661 37.1538H76.4791ZM62.0621 29.9778V32.3178H67.6781C67.59 33.4199 67.1319 34.4599 66.3781 35.2688C65.8162 35.8411 65.1408 36.2894 64.3952 36.585C63.6496 36.8805 62.8504 37.0167 62.0491 36.9848C60.3941 36.9848 58.8069 36.3273 57.6367 35.1571C56.4665 33.9869 55.8091 32.3997 55.8091 30.7448C55.8091 29.0898 56.4665 27.5026 57.6367 26.3324C58.8069 25.1622 60.3941 24.5048 62.0491 24.5048C63.6322 24.4789 65.1609 25.082 66.3001 26.1818L67.9511 24.5308C67.1821 23.7521 66.2646 23.1357 65.2531 22.7181C64.2415 22.3006 63.1564 22.0903 62.0621 22.0998C60.9064 22.0548 59.7535 22.2436 58.6725 22.6548C57.5915 23.0661 56.6046 23.6913 55.771 24.4931C54.9375 25.2948 54.2743 26.2566 53.8213 27.3208C53.3684 28.385 53.1349 29.5297 53.1349 30.6863C53.1349 31.8428 53.3684 32.9875 53.8213 34.0517C54.2743 35.1159 54.9375 36.0777 55.771 36.8795C56.6046 37.6812 57.5915 38.3065 58.6725 38.7177C59.7535 39.129 60.9064 39.3177 62.0621 39.2728C63.1748 39.323 64.2854 39.1344 65.3191 38.7196C66.3529 38.3047 67.2858 37.6733 68.0551 36.8678C69.417 35.3714 70.1442 33.4043 70.0831 31.3818C70.0873 30.889 70.0437 30.3971 69.9531 29.9128L62.0621 29.9778ZM120.965 31.7978C120.626 30.8003 119.992 29.9294 119.147 29.3003C118.302 28.6712 117.286 28.3135 116.233 28.2748C115.522 28.2734 114.818 28.4178 114.165 28.6993C113.512 28.9807 112.924 29.393 112.436 29.9109C111.949 30.4287 111.573 31.041 111.332 31.7099C111.09 32.3788 110.989 33.09 111.033 33.7998C111.017 34.5264 111.148 35.2487 111.418 35.9236C111.687 36.5985 112.09 37.2121 112.602 37.7278C113.114 38.2435 113.725 38.6507 114.398 38.9251C115.071 39.1995 115.792 39.3354 116.519 39.3248C117.428 39.3297 118.325 39.109 119.128 38.6825C119.931 38.2559 120.616 37.6369 121.121 36.8808L119.236 35.5808C118.955 36.0498 118.556 36.4377 118.08 36.7066C117.604 36.9755 117.066 37.1161 116.519 37.1148C115.956 37.1362 115.399 36.9878 114.922 36.6887C114.444 36.3896 114.068 35.9537 113.841 35.4378L121.238 32.3828L120.965 31.7978ZM113.425 33.6438C113.399 33.2417 113.453 32.8384 113.584 32.4574C113.716 32.0765 113.922 31.7257 114.191 31.4254C114.459 31.1252 114.785 30.8816 115.15 30.7089C115.514 30.5362 115.909 30.4379 116.311 30.4198C116.73 30.3921 117.149 30.4883 117.514 30.6963C117.879 30.9043 118.175 31.215 118.365 31.5898L113.425 33.6438ZM107.419 38.9998H109.85V22.7498H107.419V38.9998ZM103.441 29.5098H103.35C102.984 29.1001 102.535 28.7726 102.033 28.5485C101.531 28.3245 100.988 28.209 100.438 28.2098C99.0174 28.2787 97.6777 28.8915 96.6966 29.9213C95.7155 30.9511 95.1683 32.3189 95.1683 33.7413C95.1683 35.1636 95.7155 36.5314 96.6966 37.5612C97.6777 38.591 99.0174 39.2039 100.438 39.2728C100.989 39.282 101.535 39.1704 102.038 38.9458C102.541 38.7212 102.989 38.3891 103.35 37.9728H103.428V38.7658C103.428 40.8848 102.297 42.0158 100.477 42.0158C99.8709 42.0016 99.2827 41.8073 98.7872 41.4578C98.2918 41.1082 97.9116 40.6191 97.6951 40.0528L95.5761 40.9368C95.9749 41.907 96.6546 42.736 97.5278 43.3174C98.401 43.8988 99.428 44.206 100.477 44.1998C103.324 44.1998 105.677 42.5228 105.677 38.4408V28.5998H103.441V29.5098ZM100.659 37.1538C99.8205 37.0799 99.04 36.6945 98.4715 36.0737C97.903 35.4529 97.5876 34.6416 97.5876 33.7998C97.5876 32.958 97.903 32.1467 98.4715 31.5258C99.04 30.905 99.8205 30.5197 100.659 30.4458C101.075 30.4671 101.482 30.5714 101.857 30.7526C102.232 30.9338 102.567 31.1881 102.842 31.5007C103.117 31.8133 103.326 32.1777 103.458 32.5725C103.59 32.9674 103.642 33.3847 103.61 33.7998C103.646 34.2167 103.596 34.6364 103.465 35.0337C103.333 35.4309 103.123 35.7974 102.846 36.1109C102.569 36.4244 102.231 36.6785 101.853 36.8577C101.475 37.037 101.064 37.1377 100.646 37.1538H100.659ZM132.353 22.7498H126.542V38.9998H128.973V32.8378H132.366C133.059 32.8875 133.755 32.794 134.41 32.5631C135.065 32.3322 135.665 31.9688 136.174 31.4955C136.682 31.0223 137.088 30.4493 137.365 29.8124C137.642 29.1756 137.785 28.4884 137.785 27.7938C137.785 27.0991 137.642 26.412 137.365 25.7751C137.088 25.1382 136.682 24.5653 136.174 24.092C135.665 23.6188 135.065 23.2554 134.41 23.0244C133.755 22.7935 133.059 22.7 132.366 22.7498H132.353ZM132.353 30.5498H128.96V25.0118H132.405C133.145 25.0118 133.854 25.3056 134.377 25.8285C134.9 26.3514 135.194 27.0607 135.194 27.8003C135.194 28.5398 134.9 29.2491 134.377 29.772C133.854 30.295 133.145 30.5888 132.405 30.5888L132.353 30.5498ZM147.342 28.2098C146.457 28.1569 145.576 28.3637 144.807 28.8048C144.038 29.2459 143.414 29.9021 143.013 30.6928L145.171 31.5898C145.384 31.1976 145.706 30.8758 146.098 30.6634C146.491 30.4511 146.936 30.3574 147.381 30.3938C147.69 30.3577 148.002 30.3835 148.301 30.4696C148.599 30.5557 148.878 30.7004 149.12 30.8952C149.362 31.09 149.563 31.3311 149.711 31.6044C149.858 31.8776 149.95 32.1776 149.981 32.4868V32.6558C149.2 32.2424 148.33 32.028 147.446 32.0318C145.119 32.0318 142.766 33.3318 142.766 35.6848C142.789 36.1865 142.912 36.6785 143.129 37.1317C143.345 37.585 143.65 37.9902 144.026 38.3235C144.402 38.6568 144.84 38.9114 145.316 39.0722C145.792 39.233 146.295 39.2968 146.796 39.2598C147.408 39.3037 148.021 39.1821 148.57 38.9076C149.119 38.6331 149.584 38.2159 149.916 37.6998H149.994V38.9998H152.334V32.7468C152.334 29.8998 150.176 28.2488 147.407 28.2488L147.342 28.2098ZM147.043 37.1148C146.25 37.1148 145.145 36.7118 145.145 35.7368C145.145 34.4368 146.523 34.0078 147.745 34.0078C148.517 33.9887 149.281 34.1773 149.955 34.5538C149.874 35.2576 149.541 35.9083 149.018 36.3861C148.495 36.8639 147.816 37.1365 147.108 37.1538L147.043 37.1148ZM160.862 28.5998L158.08 35.6458H158.002L155.116 28.5998H152.516L156.845 38.4538L154.375 43.9268H156.91L163.566 28.5998H160.862ZM139.009 38.9998H141.44V22.7498H139.009V38.9998Z" fill="white"/>
<path d="M61.5648 13.3931C61.5869 13.8699 61.5119 14.3463 61.3443 14.7932C61.1767 15.2401 60.92 15.6484 60.5898 15.9931C60.2211 16.3761 59.7759 16.677 59.2831 16.8764C58.7903 17.0757 58.2611 17.169 57.7298 17.1501C56.9238 17.1438 56.1376 16.8997 55.4696 16.4485C54.8017 15.9973 54.2818 15.3591 53.975 14.6137C53.6683 13.8683 53.5883 13.0489 53.7452 12.2583C53.902 11.4677 54.2887 10.7409 54.8568 10.1691C55.2302 9.7879 55.6778 9.48739 56.172 9.28615C56.6662 9.0849 57.1964 8.9872 57.7298 8.99909C58.2794 8.99726 58.8236 9.10786 59.3288 9.32409C59.7992 9.51383 60.218 9.81231 60.5508 10.1951L59.8618 10.8841C59.6024 10.5755 59.2747 10.3314 58.9046 10.1712C58.5346 10.011 58.1324 9.93909 57.7298 9.96109C57.3238 9.95909 56.9215 10.0391 56.5471 10.1964C56.1727 10.3536 55.8339 10.5849 55.5511 10.8762C55.2682 11.1676 55.0471 11.513 54.901 11.8919C54.7549 12.2708 54.6868 12.6753 54.7008 13.0811C54.6923 13.6871 54.8634 14.282 55.1927 14.7908C55.5219 15.2996 55.9944 15.6995 56.5506 15.9401C57.1069 16.1807 57.7219 16.2511 58.3181 16.1426C58.9144 16.034 59.4651 15.7513 59.9008 15.3301C60.3008 14.8966 60.5316 14.3336 60.5508 13.7441H57.7298V12.8081H61.5128C61.5475 13.0012 61.5649 13.1969 61.5648 13.3931ZM67.5188 10.1431H64.0088V12.6131H67.2068V13.5491H64.0088V16.0191H67.5188V16.9811H62.9688V9.18109H67.5188V10.1431ZM71.7828 16.9811H70.7818V10.1431H68.5978V9.18109H74.0188V10.1431H71.7828V16.9811ZM77.8408 16.9811V9.18109H78.8418V16.9811H77.8408ZM83.2878 16.9811H82.2868V10.1431H80.1028V9.18109H85.4588V10.1431H83.2878V16.9811ZM95.6118 15.9671C94.8518 16.7228 93.8236 17.1471 92.7518 17.1471C91.68 17.1471 90.6518 16.7228 89.8918 15.9671C89.1531 15.1852 88.7416 14.1503 88.7416 13.0746C88.7416 11.9989 89.1531 10.964 89.8918 10.1821C90.2664 9.80475 90.712 9.50527 91.2028 9.30091C91.6937 9.09654 92.2201 8.99133 92.7518 8.99133C93.2835 8.99133 93.81 9.09654 94.3008 9.30091C94.7917 9.50527 95.2372 9.80475 95.6118 10.1821C96.3534 10.9625 96.767 11.998 96.767 13.0746C96.767 14.1512 96.3534 15.1867 95.6118 15.9671ZM90.6328 15.3171C91.1956 15.8775 91.9576 16.1922 92.7518 16.1922C93.5461 16.1922 94.308 15.8775 94.8708 15.3171C95.4262 14.7048 95.7339 13.9077 95.7339 13.0811C95.7339 12.2544 95.4262 11.4574 94.8708 10.8451C94.308 10.2846 93.5461 9.96996 92.7518 9.96996C91.9576 9.96996 91.1956 10.2846 90.6328 10.8451C90.0774 11.4574 89.7698 12.2544 89.7698 13.0811C89.7698 13.9077 90.0774 14.7048 90.6328 15.3171ZM98.1728 16.9811V9.18109H99.3948L103.191 15.2521V9.18109H104.192V16.9811H103.152L99.1868 10.6241V16.9811H98.1728Z" fill="white"/>
<path fill-rule="evenodd" clip-rule="evenodd" d="M92.7518 9.12133C92.2373 9.12133 91.7278 9.22315 91.2528 9.42092C90.7783 9.61849 90.3475 9.90791 89.9852 10.2725C89.27 11.0302 88.8716 12.0327 88.8716 13.0746C88.8716 14.1164 89.2699 15.1187 89.9849 15.8763C90.7204 16.607 91.7151 17.0171 92.7518 17.0171C93.7887 17.0171 94.7834 16.6069 95.5189 15.8762C96.2367 15.1201 96.637 14.1172 96.637 13.0746C96.637 12.0318 96.2366 11.0288 95.5186 10.2727C95.1563 9.908 94.7254 9.61852 94.2508 9.42092C93.7758 9.22315 93.2664 9.12133 92.7518 9.12133ZM91.1529 9.18089C91.6595 8.96994 92.203 8.86133 92.7518 8.86133C93.3007 8.86133 93.8441 8.96994 94.3508 9.18089C94.8575 9.39185 95.3174 9.70099 95.7041 10.0905L95.7061 10.0925C96.4707 10.8971 96.897 11.9647 96.897 13.0746C96.897 14.1845 96.4706 15.252 95.7061 16.0566L95.7035 16.0593C94.9192 16.8393 93.858 17.2771 92.7518 17.2771C91.6457 17.2771 90.5845 16.8392 89.8002 16.0593L89.7973 16.0564C89.0358 15.2504 88.6116 14.1835 88.6116 13.0746C88.6116 11.9657 89.0358 10.8989 89.7973 10.0928L89.7995 10.0905C90.1862 9.70096 90.6462 9.39185 91.1529 9.18089ZM57.7269 9.12905C57.2113 9.11756 56.6987 9.21201 56.221 9.40655C55.7433 9.60108 55.3106 9.89158 54.9497 10.2601L54.949 10.2607C54.399 10.8144 54.0246 11.5181 53.8727 12.2836C53.7208 13.0491 53.7982 13.8425 54.0952 14.5642C54.3923 15.2859 54.8957 15.9039 55.5424 16.3408C56.1891 16.7777 56.9504 17.014 57.7308 17.0201L57.7344 17.0201C58.2474 17.0384 58.7585 16.9484 59.2344 16.7559C59.7102 16.5634 60.1401 16.2728 60.496 15.9031C60.814 15.5711 61.0612 15.178 61.2226 14.7476C61.384 14.3171 61.4562 13.8583 61.435 13.3991L61.5648 13.3931L61.4348 13.393C61.4349 13.2408 61.424 13.0887 61.4022 12.9381H57.8598V13.6141H60.6851L60.6807 13.7483C60.6605 14.3691 60.4175 14.9618 59.9964 15.4182L59.9913 15.4237C59.5371 15.8628 58.9629 16.1573 58.3414 16.2705C57.7199 16.3836 57.0788 16.3102 56.499 16.0594C55.9192 15.8087 55.4267 15.3918 55.0835 14.8614C54.7409 14.3319 54.5625 13.713 54.5708 13.0824C54.5566 12.6602 54.6277 12.2394 54.7797 11.8451C54.9321 11.4499 55.1627 11.0896 55.4578 10.7857C55.7528 10.4817 56.1062 10.2405 56.4967 10.0765C56.8861 9.91298 57.3043 9.82952 57.7266 9.83107C58.148 9.80864 58.569 9.88423 58.9563 10.0519C59.3015 10.2014 59.6116 10.4203 59.8675 10.6945L60.3715 10.1906C60.0663 9.86626 59.6941 9.61159 59.2802 9.44465L59.2777 9.44363C58.7887 9.23437 58.2621 9.12731 57.7303 9.12909L57.7269 9.12905ZM61.6948 13.3901C61.7173 13.8835 61.6394 14.3764 61.466 14.8388C61.2922 15.3023 61.0261 15.7256 60.6837 16.083C60.3024 16.4791 59.8416 16.7907 59.3319 16.9969C58.8227 17.2029 58.2759 17.2994 57.727 17.2801C56.896 17.2732 56.0855 17.0214 55.3969 16.5563C54.7077 16.0907 54.1713 15.4322 53.8548 14.6631C53.5383 13.8941 53.4558 13.0487 53.6176 12.233C53.7795 11.4174 54.1783 10.6677 54.7643 10.0778C55.15 9.68406 55.6125 9.37364 56.123 9.16575C56.6331 8.958 57.1804 8.85704 57.7311 8.86908C58.2973 8.86742 58.858 8.9814 59.3787 9.20404C59.8677 9.40148 60.3029 9.71186 60.6489 10.1098L60.7285 10.2013L59.8535 11.0762L59.7623 10.9677C59.5158 10.6745 59.2045 10.4427 58.853 10.2905C58.5015 10.1383 58.1194 10.07 57.7369 10.0909L57.7292 10.0913C57.3406 10.0894 56.9557 10.1658 56.5974 10.3162C56.2392 10.4667 55.915 10.688 55.6443 10.9668C55.3737 11.2456 55.1621 11.5761 55.0223 11.9387C54.8825 12.3012 54.8173 12.6883 54.8307 13.0766L54.831 13.0829C54.8228 13.6632 54.9865 14.2329 55.3018 14.7202C55.6171 15.2074 56.0696 15.5904 56.6022 15.8208C57.1349 16.0512 57.7239 16.1186 58.2948 16.0147C58.8646 15.9109 59.3909 15.6411 59.8078 15.2392C60.1547 14.8621 60.3666 14.382 60.4126 13.8741H57.5998V12.6781H61.6216L61.6408 12.7851C61.6766 12.9848 61.6947 13.1872 61.6948 13.3901ZM62.8388 9.05109H67.6488V10.2731H64.1388V12.4831H67.3368V13.6791H64.1388V15.8891H67.6488V17.1111H62.8388V9.05109ZM63.0988 9.31109V16.8511H67.3888V16.1491H63.8788V13.4191H67.0768V12.7431H63.8788V10.0131H67.3888V9.31109H63.0988ZM68.4678 9.05109H74.1488V10.2731H71.9128V17.1111H70.6518V10.2731H68.4678V9.05109ZM68.7278 9.31109V10.0131H70.9118V16.8511H71.6528V10.0131H73.8888V9.31109H68.7278ZM77.7108 9.05109H78.9718V17.1111H77.7108V9.05109ZM77.9708 9.31109V16.8511H78.7118V9.31109H77.9708ZM79.9728 9.05109H85.5888V10.2731H83.4178V17.1111H82.1568V10.2731H79.9728V9.05109ZM80.2328 9.31109V10.0131H82.4168V16.8511H83.1578V10.0131H85.3288V9.31109H80.2328ZM98.0428 9.05109H99.4669L103.061 14.799V9.05109H104.322V17.1111H103.08L99.3168 11.0782V17.1111H98.0428V9.05109ZM98.3028 9.31109V16.8511H99.0568V10.17L103.224 16.8511H104.062V9.31109H103.321V15.7052L99.3228 9.31109H98.3028ZM90.5411 10.753C91.1283 10.1682 91.9232 9.83996 92.7518 9.83996C93.5805 9.83996 94.3754 10.1682 94.9626 10.753L94.9672 10.7576C95.5443 11.3938 95.8639 12.2221 95.8639 13.0811C95.8639 13.94 95.5442 14.7682 94.9671 15.4044L94.9627 15.4093C94.3755 15.994 93.5805 16.3222 92.7518 16.3222C91.9232 16.3222 91.1283 15.9939 90.5411 15.4092L90.6328 15.3171L90.5365 15.4044C89.9594 14.7682 89.6398 13.94 89.6398 13.0811C89.6398 12.2221 89.9594 11.3939 90.5365 10.7577L90.5411 10.753ZM90.7269 15.2273C91.2651 15.762 91.993 16.0622 92.7518 16.0622C93.5106 16.0622 94.2385 15.762 94.7767 15.2273C95.3091 14.6393 95.6039 13.8744 95.6039 13.0811C95.6039 12.2878 95.3091 11.5229 94.7767 10.9349C94.2385 10.4001 93.5106 10.1 92.7518 10.1C91.993 10.1 91.2651 10.4001 90.7269 10.9349C90.1946 11.5229 89.8998 12.2878 89.8998 13.0811C89.8998 13.8744 90.1946 14.6393 90.7269 15.2273Z" fill="white"/>
<path d="M13.5718 9.80194C13.1481 10.3104 12.9342 10.9613 12.9738 11.6219V40.3779C12.9342 41.0386 13.1481 41.6895 13.5718 42.1979L13.6628 42.2889L29.7698 26.1949V25.8179L13.6628 9.71094L13.5718 9.80194Z" fill="#00D2FF"/>
<path d="M35.0998 31.564L29.7698 26.195V25.818L35.0998 20.436L35.2168 20.501L41.5998 24.128C43.4198 25.155 43.4198 26.845 41.5998 27.885L35.2428 31.499L35.0998 31.564Z" fill="#FFE000"/>
<path d="M35.2559 31.486L29.7699 26L13.5719 42.198C13.9429 42.5241 14.4161 42.7104 14.9098 42.7246C15.4036 42.7389 15.8867 42.5802 16.2759 42.276L35.2689 31.486" fill="#FF3A44"/>
<path d="M35.2558 20.5139L16.2628 9.72392C15.8737 9.41973 15.3905 9.26105 14.8968 9.2753C14.403 9.28954 13.9298 9.47581 13.5588 9.80192L29.7698 25.9999L35.2558 20.5139Z" fill="#00F076"/>
<path opacity="0.2" d="M35.0999 31.3691L16.2629 42.0941C15.8876 42.3748 15.4315 42.5264 14.9629 42.5264C14.4943 42.5264 14.0382 42.3748 13.6629 42.0941L13.5719 42.1851L13.6629 42.2761C14.0374 42.5588 14.4937 42.7117 14.9629 42.7117C15.4321 42.7117 15.8884 42.5588 16.2629 42.2761L35.2559 31.4861L35.0999 31.3691Z" fill="black"/>
<path opacity="0.12" d="M13.5718 42.016C13.1481 41.5076 12.9342 40.8567 12.9738 40.196V40.391C12.9342 41.0517 13.1481 41.7026 13.5718 42.211L13.6628 42.12L13.5718 42.016ZM41.5998 27.69L35.0998 31.369L35.2168 31.486L41.5998 27.872C41.962 27.7019 42.2729 27.4392 42.5011 27.1105C42.7293 26.7819 42.8669 26.3988 42.8998 26C42.8267 26.3623 42.6715 26.7031 42.4461 26.996C42.2207 27.289 41.9312 27.5264 41.5998 27.69Z" fill="black"/>
<path opacity="0.25" d="M16.2628 9.90519L41.5998 24.3092C41.9313 24.4728 42.2208 24.7102 42.4462 25.0032C42.6715 25.2961 42.8267 25.6369 42.8998 25.9992C42.8669 25.6004 42.7294 25.2173 42.5011 24.8887C42.2729 24.56 41.962 24.2973 41.5998 24.1272L16.2628 9.72319C14.4428 8.69619 12.9608 9.55419 12.9608 11.6342V11.8292C12.9998 9.73619 14.4558 8.87819 16.2628 9.90519Z" fill="white"/>
</symbol><symbol id="instagram" viewBox="0 0 24 24">
<path fill-rule="evenodd" clip-rule="evenodd" d="M12 0C8.741 0 8.333 0.014 7.053 0.072C2.695 0.272 0.273 2.69 0.073 7.052C0.014 8.333 0 8.741 0 12C0 15.259 0.014 15.668 0.072 16.948C0.272 21.306 2.69 23.728 7.052 23.928C8.333 23.986 8.741 24 12 24C15.259 24 15.668 23.986 16.948 23.928C21.302 23.728 23.73 21.31 23.927 16.948C23.986 15.668 24 15.259 24 12C24 8.741 23.986 8.333 23.928 7.053C23.732 2.699 21.311 0.273 16.949 0.073C15.668 0.014 15.259 0 12 0ZM12 2.163C15.204 2.163 15.584 2.175 16.85 2.233C20.102 2.381 21.621 3.924 21.769 7.152C21.827 8.417 21.838 8.797 21.838 12.001C21.838 15.206 21.826 15.585 21.769 16.85C21.62 20.075 20.105 21.621 16.85 21.769C15.584 21.827 15.206 21.839 12 21.839C8.796 21.839 8.416 21.827 7.151 21.769C3.891 21.62 2.38 20.07 2.232 16.849C2.174 15.584 2.162 15.205 2.162 12C2.162 8.796 2.175 8.417 2.232 7.151C2.381 3.924 3.896 2.38 7.151 2.232C8.417 2.175 8.796 2.163 12 2.163ZM5.838 12C5.838 8.597 8.597 5.838 12 5.838C15.403 5.838 18.162 8.597 18.162 12C18.162 15.404 15.403 18.163 12 18.163C8.597 18.163 5.838 15.403 5.838 12ZM12 16C9.791 16 8 14.21 8 12C8 9.791 9.791 8 12 8C14.209 8 16 9.791 16 12C16 14.21 14.209 16 12 16ZM16.965 5.595C16.965 4.8 17.61 4.155 18.406 4.155C19.201 4.155 19.845 4.8 19.845 5.595C19.845 6.39 19.201 7.035 18.406 7.035C17.61 7.035 16.965 6.39 16.965 5.595Z" fill="#1F1F1F"/>
</symbol><symbol id="little-loft-logo" viewBox="0 0 101 103">
<path d="M13.7107 98.0968L13.0692 97.7159C13.0091 97.6959 12.9489 97.6758 12.9089 97.6758C12.8086 97.6758 12.7284 97.736 12.6483 97.8362L12.5881 97.9565C10.8442 100.823 9.24052 100.963 7.81728 100.963H7.03551C5.99314 100.923 5.65236 100.121 5.65236 99.059V88.5752H6.87514C7.05555 88.5752 7.43642 88.4549 7.43642 88.2745V87.6731C7.43642 87.4726 7.25601 87.3524 7.05555 87.3524H0.981744C0.781289 87.3524 0.681061 87.4726 0.681061 87.6731V88.2745C0.681061 88.4549 0.781289 88.5752 0.981744 88.5752H1.00179C2.1043 88.5752 2.46512 89.377 2.46512 90.4795V99.2795C2.46512 100.382 2.1043 101.184 1.00179 101.184H0.981744C0.781289 101.184 0.681061 101.304 0.681061 101.484V102.086C0.681061 102.286 0.781289 102.387 0.981744 102.387H11.0246C11.1849 102.387 11.3052 102.387 11.4255 102.487L11.5257 102.587C11.5858 102.647 11.646 102.667 11.7061 102.667C11.8064 102.667 11.9066 102.607 11.9467 102.487L13.831 98.5178C13.871 98.4576 13.8911 98.3975 13.8911 98.3574C13.8911 98.2572 13.831 98.1569 13.7107 98.0968Z" fill="#1F1F1F"/>
<path d="M17.2808 90.5597C17.6416 90.5597 17.9223 90.4193 18.2831 90.0585C18.6439 89.7178 18.7842 89.4171 18.7842 89.0562C18.7842 88.6954 18.6439 88.4148 18.2831 88.054C17.9223 87.6931 17.6416 87.5528 17.2808 87.5528C16.92 87.5528 16.6193 87.6931 16.2785 88.054C15.9177 88.4148 15.7774 88.6954 15.7774 89.0562C15.7774 89.4171 15.9177 89.7178 16.2785 90.0585C16.6193 90.4193 16.92 90.5597 17.2808 90.5597ZM20.2075 101.184H20.1473C19.1651 101.184 18.684 100.362 18.684 99.2795V91.7624C18.664 91.7424 18.664 91.7424 18.6239 91.7424H18.5838C18.5637 91.7424 18.5237 91.7624 18.5036 91.7824C17.9624 92.3437 16.92 93.1255 14.8152 93.8271C14.6148 93.8872 14.5145 93.9273 14.5145 94.0877V94.7692C14.5145 94.9096 14.5546 95.0098 14.7551 95.0298C15.8576 95.1501 15.9378 96.2526 15.9378 97.1547V99.2795C15.9578 100.362 15.4767 101.184 14.4945 101.184H14.4544C14.2539 101.184 14.1537 101.284 14.1537 101.484V102.086C14.1537 102.286 14.294 102.387 14.4945 102.387H20.1674C20.3678 102.387 20.5082 102.286 20.5082 102.086V101.484C20.5082 101.284 20.4079 101.184 20.2075 101.184Z" fill="#1F1F1F"/>
<path d="M27.9667 100.943L27.6459 100.422C27.5658 100.322 27.4856 100.282 27.4054 100.282C27.3453 100.282 27.2851 100.302 27.225 100.342H27.2049C26.784 100.602 26.2227 100.923 25.7817 100.923C25.3006 100.923 24.9398 100.602 24.9398 99.5601V93.8271H27.6259C27.8063 93.8271 27.9266 93.7269 27.9266 93.5264V92.6644C27.9266 92.464 27.8063 92.3638 27.6259 92.3638H24.9398V88.9961C24.9398 88.956 24.9198 88.956 24.8797 88.956H24.8596C24.8195 88.956 24.7995 88.9761 24.7594 88.9961C23.9576 89.6977 22.8951 90.3392 22.3138 90.6599C22.1735 90.7401 22.1334 90.8603 22.1334 91.0207V92.3638H20.6701C20.4696 92.3638 20.3694 92.464 20.3694 92.6644V93.2658C20.3694 93.4663 20.4696 93.5665 20.6701 93.5665C22.1134 93.5665 22.1334 94.7692 22.1334 95.8517V99.5601C22.1334 101.926 23.2159 102.647 24.4387 102.647C25.4409 102.647 26.5434 102.186 27.2651 101.725L27.8664 101.344C27.9667 101.284 28.0268 101.204 28.0268 101.124C28.0268 101.064 28.0068 101.003 27.9667 100.943Z" fill="#1F1F1F"/>
<path d="M35.9833 100.943L35.6626 100.422C35.5824 100.322 35.5022 100.282 35.4221 100.282C35.3619 100.282 35.3018 100.302 35.2417 100.342H35.2216C34.8006 100.602 34.2394 100.923 33.7984 100.923C33.3173 100.923 32.9565 100.602 32.9565 99.5601V93.8271H35.6426C35.823 93.8271 35.9432 93.7269 35.9432 93.5264V92.6644C35.9432 92.464 35.823 92.3638 35.6426 92.3638H32.9565V88.9961C32.9565 88.956 32.9364 88.956 32.8963 88.956H32.8763C32.8362 88.956 32.8161 88.9761 32.776 88.9961C31.9742 89.6977 30.9118 90.3392 30.3305 90.6599C30.1902 90.7401 30.1501 90.8603 30.1501 91.0207V92.3638H28.6868C28.4863 92.3638 28.3861 92.464 28.3861 92.6644V93.2658C28.3861 93.4663 28.4863 93.5665 28.6868 93.5665C30.13 93.5665 30.1501 94.7692 30.1501 95.8517V99.5601C30.1501 101.926 31.2325 102.647 32.4553 102.647C33.4576 102.647 34.5601 102.186 35.2817 101.725L35.8831 101.344C35.9833 101.284 36.0435 101.204 36.0435 101.124C36.0435 101.064 36.0234 101.003 35.9833 100.943Z" fill="#1F1F1F"/>
<path d="M40.913 99.2795V86.3902C40.8929 86.3501 40.8929 86.3501 40.8729 86.3501H40.8128C40.7927 86.3501 40.7727 86.3701 40.7326 86.3902C40.1913 86.7911 39.0888 87.5528 36.964 88.2544C36.7836 88.3146 36.6834 88.3547 36.6834 88.515V89.1966C36.6633 89.3369 36.7235 89.4371 36.9039 89.4572C38.0264 89.5774 38.1066 90.6799 38.1066 91.7624V99.2795C38.1266 100.362 37.6255 101.184 36.6433 101.184C36.4428 101.184 36.3426 101.284 36.3426 101.484V102.086C36.3426 102.286 36.4428 102.387 36.6433 102.387H42.3964C42.5768 102.387 42.697 102.286 42.697 102.086V101.484C42.697 101.284 42.5768 101.184 42.3964 101.184C41.4141 101.184 40.913 100.362 40.913 99.2795Z" fill="#1F1F1F"/>
<path d="M45.6285 98.7984L51.4418 96.2526C51.5821 96.2125 51.6222 96.1123 51.6222 96.0121C51.6222 94.4886 50.1388 92.1433 47.4928 92.1433C45.1274 92.1433 42.7219 93.5665 42.7219 97.2749C42.7219 100.182 44.7666 102.627 48.0941 102.627C50.1388 102.627 51.3616 101.685 52.1233 100.282C52.1834 100.182 52.2436 100.041 52.2436 99.941C52.2436 99.8809 52.2235 99.8207 52.1634 99.7806C51.5219 99.3998 51.4818 99.3998 51.3616 99.3998C51.3215 99.3998 51.2413 99.4198 51.2012 99.4799C50.4996 100.502 49.4973 100.963 48.6354 100.963C47.0919 100.963 46.0896 99.9209 45.6285 98.7984ZM48.6153 95.9319L45.388 97.5556C45.2276 97.0745 45.2076 96.413 45.2076 96.0121C45.2076 94.7091 45.8891 93.7269 46.9916 93.7269C47.9137 93.7269 48.6153 94.649 48.6153 95.9319Z" fill="#1F1F1F"/>
<path d="M70.2775 98.0968L69.6361 97.7159C69.576 97.6959 69.5158 97.6758 69.4757 97.6758C69.3755 97.6758 69.2953 97.736 69.2151 97.8362L69.155 97.9565C67.411 100.823 65.8074 100.963 64.3841 100.963H63.6024C62.56 100.923 62.2192 100.121 62.2192 99.059V88.5752H63.442C63.6224 88.5752 64.0033 88.4549 64.0033 88.2745V87.6731C64.0033 87.4726 63.8229 87.3524 63.6224 87.3524H57.5486C57.3482 87.3524 57.2479 87.4726 57.2479 87.6731V88.2745C57.2479 88.4549 57.3482 88.5752 57.5486 88.5752H57.5687C58.6712 88.5752 59.032 89.377 59.032 90.4795V99.2795C59.032 100.382 58.6712 101.184 57.5687 101.184H57.5486C57.3482 101.184 57.2479 101.304 57.2479 101.484V102.086C57.2479 102.286 57.3482 102.387 57.5486 102.387H67.5914C67.7518 102.387 67.8721 102.387 67.9923 102.487L68.0926 102.587C68.1527 102.647 68.2129 102.667 68.273 102.667C68.3732 102.667 68.4734 102.607 68.5135 102.487L70.3978 98.5178C70.4379 98.4576 70.458 98.3975 70.458 98.3574C70.458 98.2572 70.3978 98.1569 70.2775 98.0968Z" fill="#1F1F1F"/>
<path d="M73.968 92.5442C72.0636 93.3861 70.9611 95.2704 70.9611 97.2549C70.9611 97.9966 71.1215 98.7383 71.4222 99.4599C72.3042 101.444 74.2286 102.627 76.2331 102.627C76.9147 102.627 77.5962 102.487 78.2577 102.186C80.142 101.344 81.2645 99.4799 81.2645 97.4754C81.2645 96.7537 81.1042 96.0121 80.7835 95.2904C79.9015 93.3059 77.9771 92.1232 75.9926 92.1232C75.311 92.1232 74.6295 92.2635 73.968 92.5442ZM74.5693 93.9073C74.8299 93.787 75.1106 93.7269 75.3711 93.7269C76.5939 93.7269 77.6764 94.9697 78.2978 96.3929C78.6386 97.1547 78.8591 97.9966 78.8591 98.7383C78.8591 99.6604 78.5183 100.462 77.6563 100.843C77.3757 100.963 77.1151 101.023 76.8545 101.023C75.6117 101.023 74.5493 99.7806 73.9078 98.3574C73.5671 97.5756 73.3465 96.7537 73.3465 96.0121C73.3465 95.09 73.6873 94.2881 74.5693 93.9073Z" fill="#1F1F1F"/>
<path d="M83.4586 92.2034V92.3638H81.9752C81.7748 92.3638 81.6745 92.464 81.6745 92.6644V93.2658C81.6745 93.4663 81.7748 93.5665 81.9752 93.5665C83.4185 93.5665 83.4386 94.7692 83.4386 95.8517V99.2795C83.4586 100.362 82.9575 101.184 81.9752 101.184C81.7748 101.184 81.6745 101.284 81.6745 101.484V102.086C81.6745 102.286 81.7748 102.387 81.9752 102.387H87.6281C87.8085 102.387 87.9288 102.286 87.9288 102.086V101.484C87.9288 101.284 87.8085 101.184 87.6281 101.184C86.6459 101.184 86.1447 100.362 86.1447 99.2795V93.8271H88.8308C89.0112 93.8271 89.1315 93.7269 89.1315 93.5264V92.6644C89.1315 92.464 89.0112 92.3638 88.8308 92.3638H86.1447V91.0408C86.1447 89.5173 86.285 88.495 86.7862 87.8936C87.0267 87.5929 87.3274 87.4526 87.6281 87.4526C88.1092 87.4526 88.5702 87.8535 88.5702 88.5952C88.5702 88.9761 88.4499 89.4171 88.1894 89.9182C88.0891 90.0986 88.1092 90.3392 88.2896 90.3392L88.3297 90.3191L90.4345 89.8581C90.7351 89.7779 90.8554 89.6777 90.9356 89.4772C91.0759 89.1364 91.1361 88.7957 91.1361 88.4749C91.1361 87.2722 90.1137 86.3501 87.9889 86.3501C84.4809 86.3501 83.4586 89.818 83.4586 92.2034Z" fill="#1F1F1F"/>
<path d="M97.0918 100.943L96.771 100.422C96.6909 100.322 96.6107 100.282 96.5305 100.282C96.4704 100.282 96.4102 100.302 96.3501 100.342H96.33C95.9091 100.602 95.3478 100.923 94.9068 100.923C94.4257 100.923 94.0649 100.602 94.0649 99.5601V93.8271H96.751C96.9314 93.8271 97.0517 93.7269 97.0517 93.5264V92.6644C97.0517 92.464 96.9314 92.3638 96.751 92.3638H94.0649V88.9961C94.0649 88.956 94.0449 88.956 94.0048 88.956H93.9847C93.9446 88.956 93.9246 88.9761 93.8845 88.9961C93.0827 89.6977 92.0202 90.3392 91.4389 90.6599C91.2986 90.7401 91.2585 90.8603 91.2585 91.0207V92.3638H89.7952C89.5947 92.3638 89.4945 92.464 89.4945 92.6644V93.2658C89.4945 93.4663 89.5947 93.5665 89.7952 93.5665C91.2385 93.5665 91.2585 94.7692 91.2585 95.8517V99.5601C91.2585 101.926 92.341 102.647 93.5638 102.647C94.566 102.647 95.6685 102.186 96.3902 101.725L96.9916 101.344C97.0918 101.284 97.1519 101.204 97.1519 101.124C97.1519 101.064 97.1319 101.003 97.0918 100.943Z" fill="#1F1F1F"/>
<path d="M98.4726 86.3501V86.5538H97.9242V88.0598H97.7004V86.5538H97.1521V86.3501H98.4726Z" fill="#1F1F1F"/>
<path d="M98.6697 86.3501H98.9855L99.4529 87.7956L99.9171 86.3501H100.229V88.0598H100.02V87.0507C100.02 87.0158 100.021 86.958 100.022 86.8773C100.024 86.7966 100.025 86.7101 100.025 86.6178L99.5604 88.0598H99.3422L98.8747 86.6178V86.6702C98.8747 86.7121 98.8754 86.7761 98.8769 86.8622C98.8791 86.9475 98.8802 87.0104 98.8802 87.0507V88.0598H98.6697V86.3501Z" fill="#1F1F1F"/>
<rect width="19.6262" height="72.5052" transform="matrix(0.607015 0.79469 -0.795198 0.606349 57.9347 0.0517578)" fill="#E0B75B"/>
<rect x="42.5643" y="53.1797" width="19.2127" height="19.2123" fill="#85729F"/>
<path d="M63.1039 38.6143L63.1046 72.3923H96.9113L63.1039 38.6143Z" fill="#4A6789"/>
<ellipse cx="50.4554" cy="43.1113" rx="10.0947" ry="10.086" fill="#97C6A8"/>
<path d="M38.6951 72.3921C38.0636 63.399 30.8397 56.3067 22.0208 56.3067C13.2019 56.3067 5.97796 63.399 5.34647 72.3921L38.6951 72.3921Z" fill="#EFB496"/>
</symbol><symbol id="twitter" viewBox="0 0 24 20">
<path fill-rule="evenodd" clip-rule="evenodd" d="M24 2.55705C23.117 2.94905 22.168 3.21305 21.172 3.33205C22.189 2.72305 22.97 1.75805 23.337 0.608047C22.386 1.17205 21.332 1.58205 20.21 1.80305C19.313 0.846047 18.032 0.248047 16.616 0.248047C13.437 0.248047 11.101 3.21405 11.819 6.29305C7.728 6.08805 4.1 4.12805 1.671 1.14905C0.381 3.36205 1.002 6.25705 3.194 7.72305C2.388 7.69705 1.628 7.47605 0.965 7.10705C0.911 9.38805 2.546 11.522 4.914 11.997C4.221 12.185 3.462 12.229 2.69 12.081C3.316 14.037 5.134 15.46 7.29 15.5C5.22 17.123 2.612 17.848 0 17.54C2.179 18.937 4.768 19.752 7.548 19.752C16.69 19.752 21.855 12.031 21.543 5.10605C22.505 4.41105 23.34 3.54405 24 2.55705Z" fill="#1F1F1F"/>
</symbol><symbol id="wood-blocks-icon" viewBox="0 0 307 233">
<rect width="62.9725" height="232.477" transform="matrix(0.869411 0.494089 -0.495843 0.868412 115.272 0)" fill="#E0B75B"/>
<rect x="108.287" y="171.684" width="61.4" height="61.3158" fill="#85729F"/>
<path d="M153.315 154.452L228.271 232.675L306.67 157.76L153.315 154.452Z" fill="#4A6789"/>
<ellipse cx="242.809" cy="123.746" rx="32.9327" ry="32.3302" fill="#97C6A8"/>
<path d="M210.872 131.56C198.313 105.527 168.351 92.9711 142.052 103.426C115.754 113.881 102.632 143.566 111.425 171.096L210.872 131.56Z" fill="#EFB496"/>
</symbol></svg>