<svg width="176" height="52" viewBox="0 0 176 52" fill="none" xmlns="http://www.w3.org/2000/svg">
<path d="M169 0H6.5C2.91015 0 0 2.91015 0 6.5V45.5C0 49.0898 2.91015 52 6.5 52H169C172.59 52 175.5 49.0898 175.5 45.5V6.5C175.5 2.91015 172.59 0 169 0Z" fill="currentColor"/>
<path d="M169 1.04C170.448 1.04 171.837 1.61525 172.861 2.6392C173.885 3.66315 174.46 5.05192 174.46 6.5V45.5C174.46 46.9481 173.885 48.3369 172.861 49.3608C171.837 50.3848 170.448 50.96 169 50.96H6.5C5.05192 50.96 3.66315 50.3848 2.6392 49.3608C1.61525 48.3369 1.04 46.9481 1.04 45.5V6.5C1.04 5.05192 1.61525 3.66315 2.6392 2.6392C3.66315 1.61525 5.05192 1.04 6.5 1.04H169ZM169 0H6.5C4.77609 0 3.12279 0.684819 1.90381 1.90381C0.684819 3.12279 0 4.77609 0 6.5V45.5C0 47.2239 0.684819 48.8772 1.90381 50.0962C3.12279 51.3152 4.77609 52 6.5 52H169C170.724 52 172.377 51.3152 173.596 50.0962C174.815 48.8772 175.5 47.2239 175.5 45.5V6.5C175.5 4.77609 174.815 3.12279 173.596 1.90381C172.377 0.684819 170.724 0 169 0Z" fill="#A6A6A6"/>
<path d="M41.7468 25.1068C41.7108 21.1146 45.0156 19.1724 45.1667 19.082C43.2951 16.3533 40.3942 15.9804 39.3748 15.9507C36.9383 15.6943 34.575 17.4086 33.3339 17.4086C32.068 17.4086 30.1567 15.9755 28.0969 16.0176C25.4462 16.0585 22.9664 17.5931 21.6063 19.9763C18.7996 24.8355 20.8929 31.9763 23.582 35.9041C24.9272 37.8277 26.499 39.9755 28.5564 39.9C30.5692 39.817 31.3211 38.6167 33.7501 38.6167C36.1567 38.6167 36.8628 39.9 38.961 39.8517C41.1212 39.817 42.4813 37.9194 43.7794 35.9784C45.3339 33.7736 45.9582 31.6023 45.9829 31.4908C45.9322 31.4734 41.7876 29.8917 41.7468 25.1068Z" fill="white"/>
<path d="M37.7831 13.3666C38.8657 12.0127 39.6064 10.1709 39.4008 8.30176C37.8339 8.37112 35.8744 9.38558 34.7459 10.7097C33.7476 11.8765 32.8558 13.789 33.0862 15.5875C34.8463 15.7188 36.6535 14.6994 37.7831 13.3666Z" fill="white"/>
<path d="M70.8757 39.6239H68.0628L66.5219 34.7821H61.166L59.6982 39.6239H56.9595L62.2659 23.14H65.5434L70.8757 39.6239ZM66.0574 32.7507L64.6639 28.4464C64.5165 28.0067 64.2403 26.9712 63.8328 25.3411H63.7832C63.621 26.0422 63.3596 27.0777 63.0004 28.4464L61.6317 32.7507H66.0574Z" fill="white"/>
<path d="M84.5216 33.5339C84.5216 35.5554 83.9754 37.1533 82.8829 38.3263C81.9043 39.3704 80.6892 39.8919 79.2388 39.8919C77.6731 39.8919 76.5484 39.3296 75.8635 38.2049H75.8139V44.4662H73.1731V31.6499C73.1731 30.3791 73.1397 29.0748 73.0753 27.7371H75.3977L75.5451 29.621H75.5947C76.4753 28.2015 77.8119 27.493 79.6054 27.493C81.0076 27.493 82.1781 28.0467 83.1145 29.1553C84.0534 30.2651 84.5216 31.7243 84.5216 33.5339ZM81.8313 33.6305C81.8313 32.4736 81.5712 31.5199 81.0484 30.7693C80.4774 29.9864 79.7107 29.595 78.7495 29.595C78.098 29.595 77.5059 29.813 76.977 30.2428C76.4469 30.6764 76.1 31.2424 75.9378 31.9435C75.856 32.2705 75.8151 32.5381 75.8151 32.7486V34.7305C75.8151 35.595 76.0802 36.3246 76.6104 36.9204C77.1405 37.5162 77.8292 37.8135 78.6764 37.8135C79.6711 37.8135 80.4452 37.4295 80.9989 36.664C81.5538 35.8973 81.8313 34.8865 81.8313 33.6305Z" fill="white"/>
<path d="M98.1928 33.5339C98.1928 35.5554 97.6466 37.1533 96.5529 38.3263C95.5756 39.3704 94.3605 39.8919 92.91 39.8919C91.3444 39.8919 90.2197 39.3296 89.5359 38.2049H89.4864V44.4662H86.8456V31.6499C86.8456 30.3791 86.8122 29.0748 86.7477 27.7371H89.0702L89.2176 29.621H89.2671C90.1466 28.2015 91.4831 27.493 93.2779 27.493C94.6788 27.493 95.8493 28.0467 96.7882 29.1553C97.7234 30.2651 98.1928 31.7243 98.1928 33.5339ZM95.5025 33.6305C95.5025 32.4736 95.2411 31.5199 94.7184 30.7693C94.1474 29.9864 93.3832 29.595 92.4208 29.595C91.768 29.595 91.1772 29.813 90.647 30.2428C90.1169 30.6764 89.7713 31.2424 89.609 31.9435C89.5285 32.2705 89.4864 32.5381 89.4864 32.7486V34.7305C89.4864 35.595 89.7515 36.3246 90.2791 36.9204C90.8093 37.5149 91.498 37.8135 92.3477 37.8135C93.3423 37.8135 94.1165 37.4295 94.6701 36.664C95.2251 35.8973 95.5025 34.8865 95.5025 33.6305Z" fill="white"/>
<path d="M113.478 35.0005C113.478 36.4027 112.991 37.5435 112.014 38.4242C110.94 39.3866 109.445 39.8672 107.524 39.8672C105.75 39.8672 104.328 39.5253 103.252 38.8403L103.863 36.6393C105.023 37.3403 106.295 37.6921 107.681 37.6921C108.676 37.6921 109.45 37.4667 110.006 37.0183C110.56 36.5699 110.836 35.9679 110.836 35.2173C110.836 34.5484 110.608 33.9848 110.151 33.5278C109.696 33.0707 108.937 32.6459 107.877 32.2532C104.991 31.1768 103.549 29.6 103.549 27.5265C103.549 26.1715 104.054 25.0604 105.066 24.1958C106.074 23.33 107.42 22.8977 109.102 22.8977C110.602 22.8977 111.848 23.1591 112.842 23.6805L112.182 25.8333C111.253 25.3279 110.203 25.0753 109.027 25.0753C108.098 25.0753 107.373 25.3044 106.852 25.7602C106.413 26.1677 106.192 26.6644 106.192 27.2528C106.192 27.9043 106.444 28.4431 106.949 28.8668C107.389 29.2582 108.188 29.6818 109.347 30.1388C110.765 30.7099 111.807 31.3775 112.477 32.143C113.145 32.906 113.478 33.861 113.478 35.0005Z" fill="white"/>
<path d="M122.209 29.7188H119.298V35.4897C119.298 36.9575 119.811 37.6908 120.839 37.6908C121.311 37.6908 121.702 37.6499 122.012 37.5681L122.085 39.5735C121.565 39.768 120.88 39.8658 120.031 39.8658C118.988 39.8658 118.173 39.5475 117.585 38.9121C116.999 38.2754 116.704 37.2077 116.704 35.7077V29.7164H114.97V27.7345H116.704V25.5582L119.298 24.7754V27.7345H122.209V29.7188Z" fill="white"/>
<path d="M135.342 33.5826C135.342 35.4096 134.82 36.9096 133.777 38.0826C132.683 39.2903 131.231 39.8923 129.422 39.8923C127.678 39.8923 126.289 39.3138 125.254 38.1569C124.218 37 123.7 35.5396 123.7 33.7795C123.7 31.9377 124.233 30.429 125.302 29.256C126.368 28.0817 127.808 27.4946 129.617 27.4946C131.361 27.4946 132.765 28.0731 133.824 29.2312C134.837 30.3547 135.342 31.8051 135.342 33.5826ZM132.602 33.6681C132.602 32.5718 132.368 31.6317 131.894 30.8477C131.34 29.8988 130.549 29.4257 129.523 29.4257C128.462 29.4257 127.655 29.9001 127.102 30.8477C126.627 31.633 126.393 32.588 126.393 33.7176C126.393 34.8138 126.627 35.7539 127.102 36.5368C127.673 37.4856 128.47 37.9587 129.5 37.9587C130.508 37.9587 131.299 37.4757 131.87 36.512C132.357 35.7131 132.602 34.763 132.602 33.6681Z" fill="white"/>
<path d="M143.926 30.0595C143.665 30.0112 143.386 29.9864 143.094 29.9864C142.165 29.9864 141.446 30.337 140.941 31.0393C140.501 31.6586 140.281 32.4414 140.281 33.3865V39.6231H137.641L137.666 31.4803C137.666 30.1103 137.632 28.863 137.567 27.7383H139.867L139.964 30.0125H140.037C140.315 29.2309 140.755 28.6016 141.357 28.1297C141.945 27.7049 142.581 27.493 143.266 27.493C143.51 27.493 143.73 27.5104 143.926 27.5413V30.0595Z" fill="white"/>
<path d="M155.737 33.1178C155.737 33.591 155.706 33.9898 155.64 34.3156H147.718C147.749 35.4898 148.131 36.3879 148.867 37.0072C149.535 37.5609 150.398 37.8383 151.458 37.8383C152.631 37.8383 153.701 37.6513 154.664 37.276L155.078 39.1092C153.953 39.5997 152.625 39.8437 151.093 39.8437C149.25 39.8437 147.803 39.3012 146.75 38.2173C145.7 37.1335 145.173 35.6781 145.173 33.8523C145.173 32.06 145.663 30.5674 146.642 29.3771C147.668 28.1063 149.054 27.4708 150.798 27.4708C152.511 27.4708 153.808 28.1063 154.689 29.3771C155.386 30.3866 155.737 31.6352 155.737 33.1178ZM153.218 32.4329C153.236 31.65 153.064 30.9737 152.706 30.4027C152.249 29.6682 151.546 29.3015 150.601 29.3015C149.738 29.3015 149.035 29.6595 148.499 30.3779C148.059 30.949 147.798 31.6339 147.718 32.4316H153.218V32.4329Z" fill="white"/>
<path d="M65.1845 12.9988C65.1845 14.4567 64.7473 15.5541 63.8741 16.2911C63.0652 16.9711 61.9157 17.3118 60.4269 17.3118C59.6887 17.3118 59.0569 17.2795 58.528 17.2151V9.24939C59.218 9.13791 59.9612 9.08093 60.7638 9.08093C62.1821 9.08093 63.251 9.38936 63.9719 10.0062C64.7795 10.7036 65.1845 11.7007 65.1845 12.9988ZM63.8158 13.0347C63.8158 12.0896 63.5656 11.365 63.0652 10.8596C62.5648 10.3555 61.834 10.1028 60.8716 10.1028C60.4628 10.1028 60.1148 10.1301 59.8261 10.187V16.2428C59.9859 16.2676 60.2783 16.2787 60.7031 16.2787C61.6965 16.2787 62.4632 16.0025 63.0033 15.4501C63.5433 14.8976 63.8158 14.0925 63.8158 13.0347Z" fill="white"/>
<path d="M72.4419 14.2721C72.4419 15.1701 72.1855 15.9059 71.6727 16.4831C71.1351 17.0764 70.4229 17.3724 69.5335 17.3724C68.6764 17.3724 67.9939 17.0888 67.4848 16.519C66.9769 15.9504 66.723 15.2333 66.723 14.3687C66.723 13.4645 66.9844 12.7225 67.5096 12.1466C68.0348 11.5706 68.7408 11.282 69.6301 11.282C70.4873 11.282 71.176 11.5656 71.6974 12.1342C72.1929 12.6866 72.4419 13.4001 72.4419 14.2721ZM71.0955 14.3142C71.0955 13.7754 70.979 13.3134 70.7474 12.9281C70.4749 12.4624 70.0872 12.2295 69.5831 12.2295C69.0616 12.2295 68.6652 12.4624 68.3927 12.9281C68.1599 13.3134 68.0447 13.7828 68.0447 14.3377C68.0447 14.8765 68.1611 15.3386 68.3927 15.7238C68.6739 16.1895 69.0653 16.4224 69.5707 16.4224C70.0661 16.4224 70.4551 16.1858 70.735 15.7114C70.9753 15.3187 71.0955 14.853 71.0955 14.3142Z" fill="white"/>
<path d="M82.1727 11.4006L80.3457 17.2396H79.1566L78.3998 14.7041C78.2078 14.0712 78.0517 13.4419 77.9304 12.8176H77.9068C77.7941 13.4593 77.638 14.0873 77.4374 14.7041L76.6335 17.2396H75.4308L73.7128 11.4006H75.0468L75.707 14.1764C75.8668 14.8329 75.9981 15.4584 76.1034 16.0505H76.1269C76.2235 15.5625 76.3833 14.9407 76.6087 14.1888L77.4374 11.4019H78.4952L79.2892 14.1294C79.4811 14.7945 79.6372 15.4349 79.7574 16.0518H79.7933C79.8812 15.451 80.0138 14.8106 80.1897 14.1294L80.8982 11.4019H82.1727V11.4006Z" fill="white"/>
<path d="M88.9022 17.2397H87.6041V13.8953C87.6041 12.8648 87.2127 12.3495 86.4274 12.3495C86.0421 12.3495 85.7312 12.4907 85.4897 12.7744C85.2506 13.058 85.1293 13.3924 85.1293 13.7752V17.2385H83.8311V13.0692C83.8311 12.5564 83.8151 12.0002 83.7841 11.3982H84.9249L84.9856 12.3111H85.0215C85.1726 12.0275 85.398 11.7934 85.6941 11.6063C86.0459 11.3883 86.4397 11.2781 86.8708 11.2781C87.4158 11.2781 87.8691 11.454 88.2296 11.807C88.678 12.2393 88.9022 12.8846 88.9022 13.7417V17.2397Z" fill="white"/>
<path d="M92.4818 17.2397H91.1849V8.72156H92.4818V17.2397Z" fill="white"/>
<path d="M100.124 14.2721C100.124 15.1701 99.868 15.9059 99.3552 16.4831C98.8177 17.0764 98.1042 17.3724 97.2161 17.3724C96.3577 17.3724 95.6752 17.0888 95.1674 16.519C94.6595 15.9504 94.4056 15.2333 94.4056 14.3687C94.4056 13.4645 94.667 12.7225 95.1922 12.1466C95.7173 11.5706 96.4234 11.282 97.3115 11.282C98.1699 11.282 98.8573 11.5656 99.38 12.1342C99.8755 12.6866 100.124 13.4001 100.124 14.2721ZM98.7768 14.3142C98.7768 13.7754 98.6604 13.3134 98.4287 12.9281C98.1575 12.4624 97.7685 12.2295 97.2656 12.2295C96.7429 12.2295 96.3466 12.4624 96.0753 12.9281C95.8424 13.3134 95.7272 13.7828 95.7272 14.3377C95.7272 14.8765 95.8437 15.3386 96.0753 15.7238C96.3565 16.1895 96.7479 16.4224 97.2533 16.4224C97.7487 16.4224 98.1364 16.1858 98.4163 15.7114C98.6579 15.3187 98.7768 14.853 98.7768 14.3142Z" fill="white"/>
<path d="M106.407 17.2399H105.241L105.145 16.5673H105.109C104.71 17.1036 104.141 17.3724 103.403 17.3724C102.852 17.3724 102.406 17.1953 102.07 16.8435C101.765 16.5239 101.613 16.1263 101.613 15.6544C101.613 14.9409 101.91 14.3972 102.509 14.0206C103.106 13.6441 103.946 13.4595 105.027 13.4682V13.3592C105.027 12.59 104.623 12.206 103.814 12.206C103.238 12.206 102.73 12.3509 102.292 12.6383L102.028 11.7861C102.571 11.4504 103.241 11.282 104.031 11.282C105.557 11.282 106.322 12.0871 106.322 13.6973V15.8476C106.322 16.431 106.351 16.8955 106.407 17.2399ZM105.059 15.2333V14.3328C103.627 14.308 102.911 14.7007 102.911 15.5095C102.911 15.8142 102.993 16.0421 103.16 16.1945C103.327 16.3468 103.54 16.4224 103.794 16.4224C104.079 16.4224 104.346 16.332 104.588 16.1523C104.832 15.9715 104.982 15.7424 105.038 15.4612C105.052 15.398 105.059 15.3212 105.059 15.2333Z" fill="white"/>
<path d="M113.783 17.2397H112.631L112.57 16.3021H112.534C112.166 17.0155 111.539 17.3723 110.659 17.3723C109.955 17.3723 109.369 17.0961 108.905 16.5436C108.44 15.9912 108.209 15.274 108.209 14.3933C108.209 13.4482 108.46 12.6828 108.965 12.0981C109.455 11.5531 110.054 11.2806 110.768 11.2806C111.552 11.2806 112.101 11.5444 112.413 12.0733H112.437V8.72156H113.737V15.6667C113.737 16.2352 113.752 16.7591 113.783 17.2397ZM112.437 14.7773V13.8037C112.437 13.6353 112.425 13.499 112.401 13.395C112.328 13.0828 112.171 12.8202 111.932 12.6084C111.691 12.3966 111.399 12.2901 111.064 12.2901C110.579 12.2901 110.2 12.4821 109.922 12.8673C109.646 13.2525 109.506 13.7443 109.506 14.345C109.506 14.9222 109.638 15.3904 109.904 15.7509C110.186 16.1349 110.565 16.3269 111.039 16.3269C111.465 16.3269 111.806 16.1671 112.065 15.8463C112.315 15.5502 112.437 15.1935 112.437 14.7773Z" fill="white"/>
<path d="M124.885 14.2721C124.885 15.1701 124.629 15.9059 124.116 16.4831C123.578 17.0764 122.867 17.3724 121.977 17.3724C121.121 17.3724 120.438 17.0888 119.928 16.519C119.42 15.9504 119.166 15.2333 119.166 14.3687C119.166 13.4645 119.427 12.7225 119.953 12.1466C120.478 11.5706 121.184 11.282 122.074 11.282C122.93 11.282 123.62 11.5656 124.14 12.1342C124.636 12.6866 124.885 13.4001 124.885 14.2721ZM123.54 14.3142C123.54 13.7754 123.423 13.3134 123.192 12.9281C122.918 12.4624 122.531 12.2295 122.026 12.2295C121.506 12.2295 121.11 12.4624 120.836 12.9281C120.603 13.3134 120.488 13.7828 120.488 14.3377C120.488 14.8765 120.604 15.3386 120.836 15.7238C121.117 16.1895 121.508 16.4224 122.014 16.4224C122.509 16.4224 122.899 16.1858 123.179 15.7114C123.418 15.3187 123.54 14.853 123.54 14.3142Z" fill="white"/>
<path d="M131.864 17.2397H130.568V13.8953C130.568 12.8648 130.176 12.3495 129.39 12.3495C129.004 12.3495 128.694 12.4907 128.453 12.7744C128.213 13.058 128.093 13.3924 128.093 13.7752V17.2385H126.793V13.0692C126.793 12.5564 126.779 12.0002 126.748 11.3982H127.887L127.948 12.3111H127.984C128.136 12.0275 128.362 11.7934 128.656 11.6063C129.009 11.3883 129.402 11.2781 129.834 11.2781C130.378 11.2781 130.831 11.454 131.192 11.807C131.641 12.2393 131.864 12.8846 131.864 13.7417V17.2397Z" fill="white"/>
<path d="M140.601 12.3732H139.171V15.2097C139.171 15.9306 139.425 16.291 139.928 16.291C140.161 16.291 140.354 16.2712 140.506 16.2303L140.54 17.215C140.283 17.3117 139.947 17.36 139.532 17.36C139.019 17.36 138.62 17.2039 138.331 16.8918C138.042 16.5796 137.898 16.0544 137.898 15.3174V12.3732H137.044V11.4008H137.898V10.3306L139.17 9.94666V11.3996H140.599V12.3732H140.601Z" fill="white"/>
<path d="M147.473 17.2397H146.174V13.9202C146.174 12.8735 145.782 12.3496 144.998 12.3496C144.396 12.3496 143.985 12.653 143.759 13.26C143.721 13.3875 143.699 13.5436 143.699 13.7269V17.2385H142.402V8.72156H143.699V12.2406H143.724C144.132 11.6002 144.718 11.2806 145.477 11.2806C146.015 11.2806 146.46 11.4565 146.813 11.8095C147.252 12.2492 147.473 12.9032 147.473 13.7678V17.2397Z" fill="white"/>
<path d="M154.562 14.0438C154.562 14.2767 154.544 14.4724 154.514 14.6322H150.62C150.638 15.2094 150.824 15.6491 151.184 15.9538C151.514 16.2263 151.938 16.3626 152.459 16.3626C153.035 16.3626 153.56 16.2709 154.033 16.0864L154.236 16.9881C153.682 17.2284 153.031 17.3486 152.277 17.3486C151.372 17.3486 150.66 17.0822 150.145 16.5496C149.627 16.017 149.371 15.3023 149.371 14.4055C149.371 13.5248 149.61 12.7916 150.092 12.2069C150.594 11.5826 151.274 11.2705 152.133 11.2705C152.973 11.2705 153.611 11.5826 154.042 12.2069C154.39 12.7024 154.562 13.3155 154.562 14.0438ZM153.323 13.7082C153.333 13.3229 153.248 12.991 153.072 12.7111C152.846 12.3506 152.503 12.1698 152.039 12.1698C151.615 12.1698 151.269 12.3457 151.006 12.6987C150.79 12.9798 150.663 13.3155 150.62 13.7082H153.323Z" fill="white"/>
</svg>
